<?xml version="1.0" encoding="UTF-8"?>
<svg width="377px" height="38px" viewBox="0 0 377 38" version="1.1" xmlns="http://www.w3.org/2000/svg" xmlns:xlink="http://www.w3.org/1999/xlink">
    <title>VISION TIMES Copy</title>
    <g id="Round-1" stroke="none" stroke-width="1" fill="none" fill-rule="evenodd">
        <g id="Desktop-HD-Copy-12" transform="translate(-530.000000, -102.000000)" fill="#000000" fill-rule="nonzero">
            <g id="VISION-TIMES-Copy" transform="translate(530.408000, 102.000000)">
                <path d="M2.60273973,2.34246575 L0,1.56164384 L0,0.780821918 L6.24657534,0.780821918 C8.05114155,0.780821918 9.5260274,1.18858447 10.6712329,2.00410959 C11.8164384,2.8196347 12.6840183,3.88675799 13.2739726,5.20547945 L22.4876712,26.1835616 L30.9726027,3.12328767 L27.0684932,1.56164384 L27.0684932,0.780821918 L36.6986301,0.780821918 L36.6986301,1.56164384 L32.5342466,3.12328767 L19.7808219,37.739726 L18.2191781,37.739726 L2.60273973,2.34246575 Z" id="Path"></path>
                <polygon id="Path" points="39.2883562 37.2191781 39.2883562 36.4383562 42.4116438 35.6575342 42.4116438 2.34246575 39.2883562 1.56164384 39.2883562 0.780821918 54.1239726 0.780821918 54.1239726 1.56164384 51.0006849 2.34246575 51.0006849 35.6575342 54.1239726 36.4383562 54.1239726 37.2191781"></polygon>
                <path d="M73.1109589,38 C70.647032,38 68.3392694,37.4447489 66.1876712,36.3342466 C65.2159817,35.8484018 64.4004566,35.2757991 63.7410959,34.6164384 C63.2552511,35.4146119 62.6479452,36.1260274 61.9191781,36.7506849 C61.2945205,37.2018265 60.9474886,37.4447489 60.8780822,37.4794521 L59.5767123,37.4794521 L59.5767123,27.5890411 L61.6589041,27.5890411 C62.1794521,29.2894977 62.9082192,30.8164384 63.8452055,32.169863 C65.9621005,35.1890411 68.703653,36.6986301 72.069863,36.6986301 C74.0479452,36.6986301 75.6269406,36.1086758 76.8068493,34.9287671 C77.986758,33.7488584 78.5767123,32.169863 78.5767123,30.1917808 C78.5767123,29.0465753 78.2383562,28.0228311 77.5616438,27.1205479 C76.8849315,26.2182648 76.043379,25.4200913 75.0369863,24.7260274 C74.0305936,24.0319635 72.6251142,23.1643836 70.8205479,22.1232877 C68.530137,20.8392694 66.673516,19.6767123 65.2506849,18.6356164 C63.8278539,17.5945205 62.613242,16.2844749 61.6068493,14.7054795 C60.6004566,13.126484 60.0972603,11.2611872 60.0972603,9.10958904 C60.0972603,7.40913242 60.5744292,5.87351598 61.5287671,4.50273973 C62.483105,3.13196347 63.9146119,2.03881279 65.8232877,1.22328767 C67.7319635,0.407762557 70.0744292,0 72.8506849,0 C74.8634703,0 76.8762557,0.57260274 78.8890411,1.71780822 C79.6525114,2.13424658 80.4159817,2.68949772 81.1794521,3.38356164 C81.7694064,2.48127854 82.3767123,1.76986301 83.0013699,1.24931507 C83.6260274,0.798173516 83.9730594,0.555251142 84.0424658,0.520547945 L85.3438356,0.520547945 L85.3438356,10.4109589 L83.2616438,10.4109589 C82.8105023,8.74520548 82.13379,7.23561644 81.2315068,5.88219178 C80.3986301,4.56347032 79.36621,3.47031963 78.1342466,2.60273973 C76.9022831,1.73515982 75.4881279,1.30136986 73.8917808,1.30136986 C72.5383562,1.30136986 71.3757991,1.83926941 70.4041096,2.91506849 C69.4324201,3.99086758 68.9465753,5.36164384 68.9465753,7.02739726 C68.9465753,8.31141553 69.3196347,9.4652968 70.0657534,10.4890411 C70.8118721,11.5127854 71.7315068,12.4063927 72.8246575,13.169863 C73.9178082,13.9333333 75.4013699,14.852968 77.2753425,15.9287671 C79.4616438,17.1780822 81.2315068,18.2885845 82.5849315,19.260274 C83.9383562,20.2319635 85.0835616,21.4378995 86.0205479,22.8780822 C86.9575342,24.3182648 87.4260274,25.9753425 87.4260274,27.8493151 C87.4260274,29.7232877 86.8881279,31.4324201 85.8123288,32.9767123 C84.7365297,34.5210046 83.1228311,35.7442922 80.9712329,36.6465753 C78.8196347,37.5488584 76.1995434,38 73.1109589,38 Z" id="Path"></path>
                <polygon id="Path" points="92.3582192 37.2191781 92.3582192 36.4383562 95.4815068 35.6575342 95.4815068 2.34246575 92.3582192 1.56164384 92.3582192 0.780821918 107.193836 0.780821918 107.193836 1.56164384 104.070548 2.34246575 104.070548 35.6575342 107.193836 36.4383562 107.193836 37.2191781"></polygon>
                <path d="M130.084932,38 C126.684018,38 123.708219,37.2625571 121.157534,35.7876712 C118.606849,34.3127854 116.637443,32.1525114 115.249315,29.3068493 C113.861187,26.4611872 113.167123,23.0255708 113.167123,19 C113.167123,14.9744292 113.861187,11.5388128 115.249315,8.69315068 C116.637443,5.84748858 118.606849,3.68721461 121.157534,2.21232877 C123.708219,0.737442922 126.684018,0 130.084932,0 C133.485845,0 136.461644,0.737442922 139.012329,2.21232877 C141.563014,3.68721461 143.53242,5.84748858 144.920548,8.69315068 C146.308676,11.5388128 147.00274,14.9744292 147.00274,19 C147.00274,23.0255708 146.308676,26.4611872 144.920548,29.3068493 C143.53242,32.1525114 141.563014,34.3127854 139.012329,35.7876712 C136.461644,37.2625571 133.485845,38 130.084932,38 Z M130.084932,36.9589041 C131.438356,36.9589041 132.696347,36.3863014 133.858904,35.2410959 C135.021461,34.0958904 135.984475,32.1872146 136.747945,29.5150685 C137.511416,26.8429224 137.893151,23.3378995 137.893151,19 C137.893151,14.6621005 137.511416,11.1570776 136.747945,8.48493151 C135.984475,5.81278539 135.021461,3.90410959 133.858904,2.75890411 C132.696347,1.61369863 131.438356,1.04109589 130.084932,1.04109589 C128.731507,1.04109589 127.473516,1.61369863 126.310959,2.75890411 C125.148402,3.90410959 124.185388,5.81278539 123.421918,8.48493151 C122.658447,11.1570776 122.276712,14.6621005 122.276712,19 C122.276712,23.3378995 122.658447,26.8429224 123.421918,29.5150685 C124.185388,32.1872146 125.148402,34.0958904 126.310959,35.2410959 C127.473516,36.3863014 128.731507,36.9589041 130.084932,36.9589041 Z" id="Shape"></path>
                <path d="M157.660959,9.63013699 L157.660959,34.8767123 L161.825342,36.4383562 L161.825342,37.2191781 L151.934932,37.2191781 L151.934932,36.4383562 L156.099315,34.8767123 L156.099315,2.60273973 L152.455479,1.56164384 L152.455479,0.780821918 L157.921233,0.780821918 C159.760502,0.780821918 161.200685,1.11050228 162.241781,1.76986301 C163.282877,2.42922374 164.271918,3.31415525 165.208904,4.42465753 L181.866438,23.9452055 L181.866438,3.12328767 L177.702055,1.56164384 L177.702055,0.780821918 L187.592466,0.780821918 L187.592466,1.56164384 L183.428082,3.12328767 L183.428082,38 L181.866438,38 L157.660959,9.63013699 Z" id="Path"></path>
                <path d="M214.634932,36.4383562 L217.758219,35.6575342 L217.758219,2.08219178 L211.771918,2.08219178 C211.771918,4.19908676 211.199315,6.22922374 210.05411,8.17260274 C209.568265,8.97077626 209.013014,9.63013699 208.388356,10.1506849 L206.826712,10.1506849 L206.826712,0.780821918 L237.278767,0.780821918 L237.278767,10.1506849 L235.717123,10.1506849 C235.057763,9.63013699 234.48516,8.97077626 233.999315,8.17260274 C232.888813,6.29863014 232.333562,4.26849315 232.333562,2.08219178 L226.34726,2.08219178 L226.34726,35.6575342 L229.470548,36.4383562 L229.470548,37.2191781 L214.634932,37.2191781 L214.634932,36.4383562 Z" id="Path"></path>
                <polygon id="Path" points="242.210959 37.2191781 242.210959 36.4383562 245.334247 35.6575342 245.334247 2.34246575 242.210959 1.56164384 242.210959 0.780821918 257.046575 0.780821918 257.046575 1.56164384 253.923288 2.34246575 253.923288 35.6575342 257.046575 36.4383562 257.046575 37.2191781"></polygon>
                <path d="M267.444521,7.28767123 L267.444521,34.8767123 L271.608904,36.4383562 L271.608904,37.2191781 L261.718493,37.2191781 L261.718493,36.4383562 L265.882877,34.8767123 L265.882877,2.34246575 L262.759589,1.56164384 L262.759589,0.780821918 L269.266438,0.780821918 C271.071005,0.780821918 272.502511,1.15388128 273.560959,1.9 C274.619406,2.64611872 275.530365,3.74794521 276.293836,5.20547945 L287.641781,26.9123288 L296.334932,5.20547945 C296.924886,3.67853881 297.723059,2.55936073 298.729452,1.84794521 C299.735845,1.13652968 301.280137,0.780821918 303.362329,0.780821918 L308.828082,0.780821918 L308.828082,1.56164384 L305.704795,2.34246575 L305.704795,35.6575342 L308.828082,36.4383562 L308.828082,37.2191781 L293.992466,37.2191781 L293.992466,36.4383562 L297.115753,35.6575342 L297.115753,7.28767123 L284.882877,37.739726 L283.321233,37.739726 L267.444521,7.28767123 Z" id="Path"></path>
                <path d="M314.541096,36.4383562 L317.664384,35.6575342 L317.664384,2.34246575 L314.541096,1.56164384 L314.541096,0.780821918 L342.390411,0.780821918 L342.390411,10.1506849 L340.828767,10.1506849 C340.169406,9.63013699 339.596804,8.97077626 339.110959,8.17260274 C338.000457,6.29863014 337.445205,4.26849315 337.445205,2.08219178 L326.253425,2.08219178 L326.253425,18.4794521 L332.239726,18.4794521 C332.482648,17.1607306 332.93379,15.9287671 333.593151,14.7835616 C333.870776,14.2630137 334.200457,13.7598174 334.582192,13.2739726 L336.143836,13.2739726 L336.143836,24.9863014 L334.582192,24.9863014 C334.200457,24.5004566 333.870776,23.9972603 333.593151,23.4767123 C332.93379,22.3315068 332.482648,21.0995434 332.239726,19.7808219 L326.253425,19.7808219 L326.253425,35.9178082 L338.486301,35.9178082 C338.486301,33.7315068 339.041553,31.7013699 340.152055,29.8273973 C340.6379,29.0292237 341.210502,28.369863 341.869863,27.8493151 L343.431507,27.8493151 L343.431507,37.2191781 L314.541096,37.2191781 L314.541096,36.4383562 Z" id="Path"></path>
                <path d="M361.897945,38 C359.434018,38 357.126256,37.4447489 354.974658,36.3342466 C354.002968,35.8484018 353.187443,35.2757991 352.528082,34.6164384 C352.042237,35.4146119 351.434932,36.1260274 350.706164,36.7506849 C350.081507,37.2018265 349.734475,37.4447489 349.665068,37.4794521 L348.363699,37.4794521 L348.363699,27.5890411 L350.44589,27.5890411 C350.966438,29.2894977 351.695205,30.8164384 352.632192,32.169863 C354.749087,35.1890411 357.490639,36.6986301 360.856849,36.6986301 C362.834932,36.6986301 364.413927,36.1086758 365.593836,34.9287671 C366.773744,33.7488584 367.363699,32.169863 367.363699,30.1917808 C367.363699,29.0465753 367.025342,28.0228311 366.34863,27.1205479 C365.671918,26.2182648 364.830365,25.4200913 363.823973,24.7260274 C362.81758,24.0319635 361.4121,23.1643836 359.607534,22.1232877 C357.317123,20.8392694 355.460502,19.6767123 354.037671,18.6356164 C352.61484,17.5945205 351.400228,16.2844749 350.393836,14.7054795 C349.387443,13.126484 348.884247,11.2611872 348.884247,9.10958904 C348.884247,7.40913242 349.361416,5.87351598 350.315753,4.50273973 C351.270091,3.13196347 352.701598,2.03881279 354.610274,1.22328767 C356.51895,0.407762557 358.861416,0 361.637671,0 C363.650457,0 365.663242,0.57260274 367.676027,1.71780822 C368.439498,2.13424658 369.202968,2.68949772 369.966438,3.38356164 C370.556393,2.48127854 371.163699,1.76986301 371.788356,1.24931507 C372.413014,0.798173516 372.760046,0.555251142 372.829452,0.520547945 L374.130822,0.520547945 L374.130822,10.4109589 L372.04863,10.4109589 C371.597489,8.74520548 370.920776,7.23561644 370.018493,5.88219178 C369.185616,4.56347032 368.153196,3.47031963 366.921233,2.60273973 C365.689269,1.73515982 364.275114,1.30136986 362.678767,1.30136986 C361.325342,1.30136986 360.162785,1.83926941 359.191096,2.91506849 C358.219406,3.99086758 357.733562,5.36164384 357.733562,7.02739726 C357.733562,8.31141553 358.106621,9.4652968 358.85274,10.4890411 C359.598858,11.5127854 360.518493,12.4063927 361.611644,13.169863 C362.704795,13.9333333 364.188356,14.852968 366.062329,15.9287671 C368.24863,17.1780822 370.018493,18.2885845 371.371918,19.260274 C372.725342,20.2319635 373.870548,21.4378995 374.807534,22.8780822 C375.744521,24.3182648 376.213014,25.9753425 376.213014,27.8493151 C376.213014,29.7232877 375.675114,31.4324201 374.599315,32.9767123 C373.523516,34.5210046 371.909817,35.7442922 369.758219,36.6465753 C367.606621,37.5488584 364.98653,38 361.897945,38 Z" id="Path"></path>
            </g>
        </g>
    </g>
</svg>